<svg xmlns="http://www.w3.org/2000/svg" width="900" height="760" viewBox="0 0 900 760">
<defs>
<linearGradient id="bg" x1="0" y1="0" x2="1" y2="1">
<stop offset="0%" stop-color="#0d0818"/>
<stop offset="100%" stop-color="#1b1233"/>
</linearGradient>
<linearGradient id="grad" x1="0" y1="0" x2="1" y2="0">
<stop offset="0%" stop-color="#ff3cac"/>
<stop offset="100%" stop-color="#7b61ff"/>
</linearGradient>
<style>
text{font-family:Arial,sans-serif;fill:#fff}
</style>
</defs>
<rect width="900" height="760" rx="24" fill="url(#bg)"/>
<rect x="8" y="8" width="884" height="744" rx="20" fill="none" stroke="url(#grad)" stroke-width="2"/>
<text x="30" y="40" font-size="28" fill="url(#grad)">Skills &amp; Technologies</text>

<rect x="30" y="70" width="390" height="310" rx="18" fill="#171328" stroke="#7b61ff"/>
<text x="48" y="100" font-size="20">Frontend Development</text>
<text x="48" y="130" font-size="14">HTML5</text>
<text x="365" y="130" font-size="12">95%</text>
<rect x="48" y="138" width="330" height="10" rx="5" fill="#34294b"/>
<rect x="48" y="138" width="0" height="10" rx="5" fill="url(#grad)"><animate attributeName="width" from="0" to="314" dur="1.0s" fill="freeze"/></rect>
<text x="48" y="160" font-size="14">CSS3</text>
<text x="365" y="160" font-size="12">93%</text>
<rect x="48" y="168" width="330" height="10" rx="5" fill="#34294b"/>
<rect x="48" y="168" width="0" height="10" rx="5" fill="url(#grad)"><animate attributeName="width" from="0" to="307" dur="1.1s" fill="freeze"/></rect>
<text x="48" y="190" font-size="14">JavaScript</text>
<text x="365" y="190" font-size="12">90%</text>
<rect x="48" y="198" width="330" height="10" rx="5" fill="#34294b"/>
<rect x="48" y="198" width="0" height="10" rx="5" fill="url(#grad)"><animate attributeName="width" from="0" to="297" dur="1.2s" fill="freeze"/></rect>
<text x="48" y="220" font-size="14">TypeScript</text>
<text x="365" y="220" font-size="12">86%</text>
<rect x="48" y="228" width="330" height="10" rx="5" fill="#34294b"/>
<rect x="48" y="228" width="0" height="10" rx="5" fill="url(#grad)"><animate attributeName="width" from="0" to="284" dur="1.3s" fill="freeze"/></rect>
<text x="48" y="250" font-size="14">React.js</text>
<text x="365" y="250" font-size="12">91%</text>
<rect x="48" y="258" width="330" height="10" rx="5" fill="#34294b"/>
<rect x="48" y="258" width="0" height="10" rx="5" fill="url(#grad)"><animate attributeName="width" from="0" to="300" dur="1.4s" fill="freeze"/></rect>
<text x="48" y="280" font-size="14">Next.js</text>
<text x="365" y="280" font-size="12">84%</text>
<rect x="48" y="288" width="330" height="10" rx="5" fill="#34294b"/>
<rect x="48" y="288" width="0" height="10" rx="5" fill="url(#grad)"><animate attributeName="width" from="0" to="277" dur="1.5s" fill="freeze"/></rect>
<text x="48" y="310" font-size="14">Tailwind CSS</text>
<text x="365" y="310" font-size="12">92%</text>
<rect x="48" y="318" width="330" height="10" rx="5" fill="#34294b"/>
<rect x="48" y="318" width="0" height="10" rx="5" fill="url(#grad)"><animate attributeName="width" from="0" to="304" dur="1.6s" fill="freeze"/></rect>
<text x="48" y="340" font-size="14">Git &amp; GitHub</text>
<text x="365" y="340" font-size="12">90%</text>
<rect x="48" y="348" width="330" height="10" rx="5" fill="#34294b"/>
<rect x="48" y="348" width="0" height="10" rx="5" fill="url(#grad)"><animate attributeName="width" from="0" to="297" dur="1.7s" fill="freeze"/></rect>
<rect x="480" y="70" width="390" height="310" rx="18" fill="#171328" stroke="#7b61ff"/>
<text x="498" y="100" font-size="20">Cyber Security</text>
<text x="498" y="130" font-size="14">Ethical Hacking</text>
<text x="815" y="130" font-size="12">90%</text>
<rect x="498" y="138" width="330" height="10" rx="5" fill="#34294b"/>
<rect x="498" y="138" width="0" height="10" rx="5" fill="url(#grad)"><animate attributeName="width" from="0" to="297" dur="1.0s" fill="freeze"/></rect>
<text x="498" y="160" font-size="14">VAPT</text>
<text x="815" y="160" font-size="12">91%</text>
<rect x="498" y="168" width="330" height="10" rx="5" fill="#34294b"/>
<rect x="498" y="168" width="0" height="10" rx="5" fill="url(#grad)"><animate attributeName="width" from="0" to="300" dur="1.1s" fill="freeze"/></rect>
<text x="498" y="190" font-size="14">Web Security</text>
<text x="815" y="190" font-size="12">88%</text>
<rect x="498" y="198" width="330" height="10" rx="5" fill="#34294b"/>
<rect x="498" y="198" width="0" height="10" rx="5" fill="url(#grad)"><animate attributeName="width" from="0" to="290" dur="1.2s" fill="freeze"/></rect>
<text x="498" y="220" font-size="14">OWASP Top 10</text>
<text x="815" y="220" font-size="12">85%</text>
<rect x="498" y="228" width="330" height="10" rx="5" fill="#34294b"/>
<rect x="498" y="228" width="0" height="10" rx="5" fill="url(#grad)"><animate attributeName="width" from="0" to="280" dur="1.3s" fill="freeze"/></rect>
<text x="498" y="250" font-size="14">Burp Suite</text>
<text x="815" y="250" font-size="12">87%</text>
<rect x="498" y="258" width="330" height="10" rx="5" fill="#34294b"/>
<rect x="498" y="258" width="0" height="10" rx="5" fill="url(#grad)"><animate attributeName="width" from="0" to="287" dur="1.4s" fill="freeze"/></rect>
<text x="498" y="280" font-size="14">Nmap</text>
<text x="815" y="280" font-size="12">89%</text>
<rect x="498" y="288" width="330" height="10" rx="5" fill="#34294b"/>
<rect x="498" y="288" width="0" height="10" rx="5" fill="url(#grad)"><animate attributeName="width" from="0" to="294" dur="1.5s" fill="freeze"/></rect>
<text x="498" y="310" font-size="14">Kali Linux</text>
<text x="815" y="310" font-size="12">92%</text>
<rect x="498" y="318" width="330" height="10" rx="5" fill="#34294b"/>
<rect x="498" y="318" width="0" height="10" rx="5" fill="url(#grad)"><animate attributeName="width" from="0" to="304" dur="1.6s" fill="freeze"/></rect>
<text x="498" y="340" font-size="14">Linux</text>
<text x="815" y="340" font-size="12">90%</text>
<rect x="498" y="348" width="330" height="10" rx="5" fill="#34294b"/>
<rect x="498" y="348" width="0" height="10" rx="5" fill="url(#grad)"><animate attributeName="width" from="0" to="297" dur="1.7s" fill="freeze"/></rect>
<rect x="30" y="410" width="840" height="320" rx="18" fill="#171328" stroke="#7b61ff"/>
<text x="50" y="440" font-size="20">Security Tools</text>
<rect x="50" y="470" width="180" height="36" rx="18" fill="#241d40" stroke="url(#grad)"/>
<text x="64" y="492" font-size="13">Kali Linux</text>
<rect x="250" y="470" width="180" height="36" rx="18" fill="#241d40" stroke="url(#grad)"/>
<text x="264" y="492" font-size="13">Burp Suite</text>
<rect x="450" y="470" width="180" height="36" rx="18" fill="#241d40" stroke="url(#grad)"/>
<text x="464" y="492" font-size="13">Nmap</text>
<rect x="650" y="470" width="180" height="36" rx="18" fill="#241d40" stroke="url(#grad)"/>
<text x="664" y="492" font-size="13">Metasploit</text>
<rect x="50" y="524" width="180" height="36" rx="18" fill="#241d40" stroke="url(#grad)"/>
<text x="64" y="546" font-size="13">Wireshark</text>
<rect x="250" y="524" width="180" height="36" rx="18" fill="#241d40" stroke="url(#grad)"/>
<text x="264" y="546" font-size="13">SQLMap</text>
<rect x="450" y="524" width="180" height="36" rx="18" fill="#241d40" stroke="url(#grad)"/>
<text x="464" y="546" font-size="13">Nessus</text>
<rect x="650" y="524" width="180" height="36" rx="18" fill="#241d40" stroke="url(#grad)"/>
<text x="664" y="546" font-size="13">FFUF</text>
<rect x="50" y="578" width="180" height="36" rx="18" fill="#241d40" stroke="url(#grad)"/>
<text x="64" y="600" font-size="13">Dirsearch</text>
<rect x="250" y="578" width="180" height="36" rx="18" fill="#241d40" stroke="url(#grad)"/>
<text x="264" y="600" font-size="13">Gobuster</text>
<rect x="450" y="578" width="180" height="36" rx="18" fill="#241d40" stroke="url(#grad)"/>
<text x="464" y="600" font-size="13">Hydra</text>
<rect x="650" y="578" width="180" height="36" rx="18" fill="#241d40" stroke="url(#grad)"/>
<text x="664" y="600" font-size="13">Hashcat</text>
</svg>